<svg width="23" height="23" viewBox="0 0 23 23" fill="none" xmlns="http://www.w3.org/2000/svg">
<path fill-rule="evenodd" clip-rule="evenodd" d="M19.5514 3.83926C17.466 1.75148 14.6927 0.6012 11.7382 0.599976C5.65004 0.599976 0.695195 5.55468 0.692746 11.6444C0.69193 13.5911 1.20047 15.4914 2.16709 17.1665L0.600098 22.89L6.45544 21.354C8.06882 22.2341 9.88519 22.6979 11.7337 22.6984H11.7383C17.8257 22.6984 22.7811 17.7433 22.7834 11.6533C22.7847 8.70187 21.6368 5.92691 19.5514 3.83926ZM11.7382 20.8331H11.7343C10.0871 20.8324 8.47152 20.3897 7.0618 19.5534L6.72672 19.3544L3.25207 20.2659L4.1795 16.8782L3.96115 16.5308C3.04215 15.0692 2.55687 13.3797 2.55768 11.6451C2.55959 6.58347 6.67801 2.46546 11.7418 2.46546C14.1939 2.46627 16.499 3.42241 18.2322 5.1577C19.9655 6.89298 20.9194 9.19953 20.9186 11.6526C20.9165 16.7146 16.7983 20.8331 11.7382 20.8331ZM16.7738 13.9574C16.4979 13.8192 15.141 13.1517 14.8879 13.0595C14.6351 12.9674 14.4509 12.9215 14.2671 13.1977C14.0831 13.4739 13.5543 14.0956 13.3932 14.2797C13.2321 14.4639 13.0713 14.487 12.7952 14.3488C12.5192 14.2107 11.63 13.9191 10.5758 12.9789C9.7554 12.2471 9.20155 11.3434 9.04047 11.0672C8.87967 10.7907 9.03911 10.6558 9.16156 10.504C9.46032 10.1329 9.75949 9.74399 9.85145 9.55992C9.94356 9.37571 9.89744 9.21449 9.82832 9.07641C9.75949 8.93832 9.20754 7.57988 8.97762 7.02712C8.75342 6.48919 8.52608 6.56184 8.35656 6.55341C8.19576 6.54538 8.01168 6.54375 7.82761 6.54375C7.64368 6.54375 7.34464 6.61272 7.0916 6.88917C6.83868 7.16548 6.1258 7.83307 6.1258 9.1915C6.1258 10.5499 7.11472 11.8622 7.25268 12.0465C7.39063 12.2307 9.19883 15.0183 11.9673 16.2136C12.6257 16.4982 13.1397 16.6678 13.5406 16.7951C14.2018 17.0051 14.8033 16.9755 15.2789 16.9044C15.8092 16.8251 16.9116 16.2367 17.1418 15.5921C17.3717 14.9474 17.3717 14.3949 17.3026 14.2797C17.2338 14.1646 17.0497 14.0956 16.7738 13.9574Z" fill="current"/>
</svg>
